<svg xmlns="http://www.w3.org/2000/svg" viewBox="0 0 1600 1000" role="img">
  <rect width="1600" height="1000" fill="#0a0a0c"/>
  <rect x="0" y="0" width="260" height="1000" fill="#0d0d10" stroke="#1a1a1f"/>
  <g transform="translate(20 20)" fill="#fafafa">
    <rect width="36" height="36" rx="8" fill="#ff2e63" opacity="0.85"/>
    <text x="48" y="20" font-family="Georgia" font-style="italic" font-size="18">Director</text>
    <text x="48" y="36" font-family="ui-sans-serif" font-size="9" letter-spacing="0.2em" opacity="0.5">STUDIO</text>
  </g>
  <!-- project header -->
  <g transform="translate(296 36)" fill="#fafafa">
    <text font-family="ui-sans-serif" font-size="11" opacity="0.5">Projects / proj_a1b2c3d4</text>
    <text y="40" font-family="Georgia" font-style="italic" font-size="36">SIGNAL FROM TOMORROW</text>
    <text y="62" font-family="ui-sans-serif" font-size="13" opacity="0.6">A cinematic sci-fi trailer. Ava encounters a transmission from her own future.</text>
  </g>
  <!-- stats -->
  <g transform="translate(296 130)">
    <g><rect width="240" height="80" rx="14" fill="#0d0d10" stroke="#1a1a1f"/><text x="16" y="22" font-family="ui-sans-serif" font-size="10" fill="#9aa" letter-spacing="0.1em">SHOTS</text><text x="16" y="56" font-family="ui-monospace" font-size="28" fill="#fafafa">6</text><text x="16" y="72" font-family="ui-sans-serif" font-size="10" fill="#9aa">3 done · 2 live · 1 failed</text></g>
    <g transform="translate(258 0)"><rect width="240" height="80" rx="14" fill="#0d0d10" stroke="#1a1a1f"/><text x="16" y="22" font-family="ui-sans-serif" font-size="10" fill="#9aa" letter-spacing="0.1em">GENERATING</text><text x="16" y="56" font-family="ui-monospace" font-size="28" fill="#ff5b86">2</text><text x="16" y="72" font-family="ui-sans-serif" font-size="10" fill="#9aa">Runway tasks live</text></g>
    <g transform="translate(516 0)"><rect width="240" height="80" rx="14" fill="#0d0d10" stroke="#1a1a1f"/><text x="16" y="22" font-family="ui-sans-serif" font-size="10" fill="#9aa" letter-spacing="0.1em">SPENT</text><text x="16" y="56" font-family="ui-monospace" font-size="28" fill="#fafafa">$2.84</text><text x="16" y="72" font-family="ui-sans-serif" font-size="10" fill="#9aa">Budget $8.00</text></g>
    <g transform="translate(774 0)"><rect width="490" height="80" rx="14" fill="#0d0d10" stroke="#1a1a1f"/><text x="16" y="22" font-family="ui-sans-serif" font-size="10" fill="#9aa" letter-spacing="0.1em">BUDGET BURN</text>
      <rect x="16" y="36" width="460" height="8" rx="4" fill="#1a1a1f"/><rect x="16" y="36" width="164" height="8" rx="4" fill="#ff2e63"/>
      <text x="16" y="68" font-family="ui-sans-serif" font-size="10" fill="#9aa">35% spent · 65% left</text>
    </g>
  </g>
  <!-- cast -->
  <g transform="translate(296 240)">
    <rect width="240" height="640" rx="16" fill="#0d0d10" stroke="#1a1a1f"/>
    <text x="20" y="32" font-family="Georgia" font-style="italic" font-size="20" fill="#fafafa">Cast</text>
    <g transform="translate(16 56)" fill="#cfcfd2" font-family="ui-sans-serif" font-size="11">
      <rect width="208" height="28" rx="6" fill="#1a1a1f"/>
      <text x="14" y="18">People (3)</text>
      <text x="78" y="18" opacity="0.5">Places (2)</text>
      <text x="142" y="18" opacity="0.5">Styles (1)</text>
    </g>
    <g transform="translate(16 100)">
      <g><rect width="208" height="62" rx="10" fill="#0a0a0c" stroke="#ff2e63" stroke-opacity="0.4"/><rect x="6" y="6" width="50" height="50" rx="8" fill="#1a1a1f"/><text x="68" y="28" font-family="ui-sans-serif" font-size="13" fill="#fafafa">Ava</text><text x="68" y="46" font-family="ui-sans-serif" font-size="10" fill="#c980ff">@Ava · 30s, dark hair</text></g>
      <g transform="translate(0 72)"><rect width="208" height="62" rx="10" fill="#0a0a0c" stroke="#1a1a1f"/><rect x="6" y="6" width="50" height="50" rx="8" fill="#1a1a1f"/><text x="68" y="28" font-family="ui-sans-serif" font-size="13" fill="#fafafa">Marcus</text><text x="68" y="46" font-family="ui-sans-serif" font-size="10" fill="#c980ff">@Marcus</text></g>
      <g transform="translate(0 144)"><rect width="208" height="62" rx="10" fill="#0a0a0c" stroke="#1a1a1f"/><rect x="6" y="6" width="50" height="50" rx="8" fill="#1a1a1f"/><text x="68" y="28" font-family="ui-sans-serif" font-size="13" fill="#fafafa">Nova</text><text x="68" y="46" font-family="ui-sans-serif" font-size="10" fill="#c980ff">@Nova</text></g>
    </g>
  </g>
  <!-- storyboard -->
  <g transform="translate(556 240)">
    <text font-family="Georgia" font-style="italic" font-size="28" fill="#fafafa">Storyboard</text>
    <g transform="translate(0 24)">
      <g><rect width="700" height="100" rx="12" fill="#0d0d10" stroke="#ff2e63" stroke-opacity="0.35"/><rect x="32" width="176" height="100" fill="#1a1a1f"/><text x="240" y="34" font-family="ui-monospace" font-size="11" fill="#9aa">#01 · gen4.5 · 5s · 1280:720</text><text x="240" y="58" font-family="ui-sans-serif" font-size="13" fill="#fafafa">@Ava enters @Office at golden hour, low-angle wide</text><text x="240" y="80" font-family="ui-sans-serif" font-size="10" fill="#c980ff">@Ava · @Office</text><rect x="620" y="20" width="60" height="26" rx="6" fill="#22c55e" fill-opacity="0.2"/><text x="650" y="38" text-anchor="middle" font-family="ui-sans-serif" font-size="10" fill="#22c55e">Ready</text></g>
      <g transform="translate(0 112)"><rect width="700" height="100" rx="12" fill="#0d0d10" stroke="#1a1a1f"/><rect x="32" width="176" height="100" fill="#1a1a1f"/><text x="240" y="34" font-family="ui-monospace" font-size="11" fill="#9aa">#02 · gen4_turbo · 5s</text><text x="240" y="58" font-family="ui-sans-serif" font-size="13" fill="#fafafa">Close-up: @Ava reads a strange transmission on her phone</text><rect x="620" y="20" width="60" height="26" rx="6" fill="#ff2e63" fill-opacity="0.2"/><text x="650" y="38" text-anchor="middle" font-family="ui-sans-serif" font-size="10" fill="#ff5b86">Rendering</text></g>
      <g transform="translate(0 224)"><rect width="700" height="100" rx="12" fill="#0d0d10" stroke="#1a1a1f"/><rect x="32" width="176" height="100" fill="#1a1a1f"/><text x="240" y="34" font-family="ui-monospace" font-size="11" fill="#9aa">#03 · seedance2 · 10s</text><text x="240" y="58" font-family="ui-sans-serif" font-size="13" fill="#fafafa">@Ava walks the empty @Office, slow dolly-in</text><rect x="620" y="20" width="60" height="26" rx="6" fill="#22c55e" fill-opacity="0.2"/><text x="650" y="38" text-anchor="middle" font-family="ui-sans-serif" font-size="10" fill="#22c55e">Ready</text></g>
      <g transform="translate(0 336)"><rect width="700" height="100" rx="12" fill="#0d0d10" stroke="#1a1a1f"/><rect x="32" width="176" height="100" fill="#1a1a1f"/><text x="240" y="34" font-family="ui-monospace" font-size="11" fill="#9aa">#04 · veo3.1_fast · 6s</text><text x="240" y="58" font-family="ui-sans-serif" font-size="13" fill="#fafafa">Hero shot: future-Ava reflected in the window</text><rect x="620" y="20" width="60" height="26" rx="6" fill="#444"/><text x="650" y="38" text-anchor="middle" font-family="ui-sans-serif" font-size="10" fill="#9aa">Draft</text></g>
    </g>
  </g>
  <!-- editor -->
  <g transform="translate(1280 240)">
    <rect width="296" height="640" rx="16" fill="#0d0d10" stroke="#1a1a1f"/>
    <text x="20" y="32" font-family="ui-sans-serif" font-size="10" fill="#9aa" letter-spacing="0.1em">SHOT</text>
    <text x="20" y="56" font-family="ui-monospace" font-size="18" fill="#fafafa">#02</text>
    <rect x="20" y="78" width="256" height="142" rx="8" fill="#000"/>
    <text x="20" y="248" font-family="ui-sans-serif" font-size="10" fill="#9aa" letter-spacing="0.1em">PROMPT</text>
    <rect x="20" y="256" width="256" height="90" rx="6" fill="#0a0a0c" stroke="#1a1a1f"/>
    <text x="28" y="278" font-family="ui-monospace" font-size="11" fill="#fafafa">Close-up: @Ava reads a strange</text>
    <text x="28" y="294" font-family="ui-monospace" font-size="11" fill="#fafafa">transmission on her phone, blue glow</text>
    <text x="20" y="368" font-family="ui-sans-serif" font-size="10" fill="#9aa" letter-spacing="0.1em">REFERENCES</text>
    <g transform="translate(20 376)">
      <rect width="60" height="22" rx="11" fill="#1a1a1f" stroke="#ff2e63" stroke-opacity="0.4"/><text x="30" y="15" text-anchor="middle" font-family="ui-sans-serif" font-size="10" fill="#fafafa">@Ava</text>
      <rect x="68" width="74" height="22" rx="11" fill="#1a1a1f" stroke="#3aa0ff" stroke-opacity="0.4"/><text x="105" y="15" text-anchor="middle" font-family="ui-sans-serif" font-size="10" fill="#fafafa">@Office</text>
    </g>
    <rect x="20" y="420" width="120" height="36" rx="6" fill="#1a1a1f"/><text x="32" y="442" font-family="ui-monospace" font-size="11" fill="#fafafa">gen4_turbo ▾</text>
    <rect x="156" y="420" width="120" height="36" rx="6" fill="#1a1a1f"/><text x="168" y="442" font-family="ui-monospace" font-size="11" fill="#fafafa">5s ▾</text>
    <rect x="20" y="540" width="256" height="40" rx="8" fill="#0a0a0c" stroke="#1a1a1f"/>
    <text x="32" y="565" font-family="ui-sans-serif" font-size="11" fill="#9aa">Estimated cost</text>
    <text x="264" y="565" text-anchor="end" font-family="ui-monospace" font-size="12" fill="#fafafa">$0.25</text>
    <rect x="20" y="592" width="256" height="40" rx="8" fill="#ff2e63"/>
    <text x="148" y="617" text-anchor="middle" font-family="ui-sans-serif" font-size="13" fill="#fff">✦ Render shot</text>
  </g>
  <!-- queue dock -->
  <rect x="260" y="900" width="1340" height="100" fill="#0d0d10" stroke="#1a1a1f"/>
  <g transform="translate(296 924)" fill="#fafafa" font-family="ui-sans-serif" font-size="11">
    <text fill="#ff5b86">● Generation queue</text>
    <text x="120" opacity="0.55">2 live · 8 done · 1 failed</text>
  </g>
  <g transform="translate(296 944)">
    <g><rect width="220" height="48" rx="8" fill="#0a0a0c" stroke="#1a1a1f"/><text x="12" y="20" font-family="ui-sans-serif" font-size="11" fill="#fafafa">Shot · gen4_turbo</text><text x="12" y="36" font-family="ui-monospace" font-size="10" fill="#ff5b86">● Live · #02</text></g>
    <g transform="translate(232 0)"><rect width="220" height="48" rx="8" fill="#0a0a0c" stroke="#1a1a1f"/><text x="12" y="20" font-family="ui-sans-serif" font-size="11" fill="#fafafa">Keyframe · gen4_image</text><text x="12" y="36" font-family="ui-monospace" font-size="10" fill="#22c55e">● Done · ref Ava</text></g>
    <g transform="translate(464 0)"><rect width="220" height="48" rx="8" fill="#0a0a0c" stroke="#1a1a1f"/><text x="12" y="20" font-family="ui-sans-serif" font-size="11" fill="#fafafa">Shot · seedance2</text><text x="12" y="36" font-family="ui-monospace" font-size="10" fill="#22c55e">● Done · #03</text></g>
  </g>
</svg>
